HIERARCHY
ROOT Hips
{
 OFFSET 0.000000 0.000000 0.000000
 CHANNELS 6 Xposition Yposition Zposition Yrotation Xrotation Zrotation
 JOINT Chest
 {
  OFFSET 0.000000 9.585900 0.002600
  CHANNELS 3 Yrotation Xrotation Zrotation
  JOINT Chest2
  {
   OFFSET 0.000000 9.601200 -0.005300
   CHANNELS 3 Yrotation Xrotation Zrotation
   JOINT Chest3
   {
    OFFSET 0.000000 9.561800 0.000000
    CHANNELS 3 Yrotation Xrotation Zrotation
    JOINT Chest4
    {
     OFFSET 0.000000 9.552100 0.000000
     CHANNELS 3 Yrotation Xrotation Zrotation
     JOINT Neck
     {
      OFFSET 0.000000 14.453000 0.000000
      CHANNELS 3 Yrotation Xrotation Zrotation
      JOINT Head
      {
       OFFSET 0.000000 8.936500 -0.011300
       CHANNELS 3 Yrotation Xrotation Zrotation
       End Site
       {
        OFFSET 0.000000 17.073600 -0.006000
       }
      }
     }
     JOINT RightCollar
     {
      OFFSET -2.921100 9.558500 0.000000
      CHANNELS 3 Yrotation Xrotation Zrotation
      JOINT RightShoulder
      {
       OFFSET -13.519700 0.000000 0.000000
       CHANNELS 3 Yrotation Xrotation Zrotation
       JOINT RightElbow
       {
        OFFSET 0.000000 -29.696600 0.000000
        CHANNELS 3 Yrotation Xrotation Zrotation
        JOINT RightWrist
        {
         OFFSET 0.000000 -24.004700 0.000000
         CHANNELS 3 Yrotation Xrotation Zrotation
         End Site
         {
          OFFSET 0.000000 -17.728500 0.000000
         }
        }
       }
      }
     }
     JOINT LeftCollar
     {
      OFFSET 2.921100 9.558500 0.000000
      CHANNELS 3 Yrotation Xrotation Zrotation
      JOINT LeftShoulder
      {
       OFFSET 13.519700 0.000000 0.000000
       CHANNELS 3 Yrotation Xrotation Zrotation
       JOINT LeftElbow
       {
        OFFSET 0.000000 -29.696600 0.000000
        CHANNELS 3 Yrotation Xrotation Zrotation
        JOINT LeftWrist
        {
         OFFSET 0.000000 -24.004700 0.000000
         CHANNELS 3 Yrotation Xrotation Zrotation
         End Site
         {
          OFFSET 0.000000 -17.728500 0.000000
         }
        }
       }
      }
     }
    }
   }
  }
 }
 JOINT RightHip
 {
  OFFSET -7.771700 -0.012900 -0.001300
  CHANNELS 3 Yrotation Xrotation Zrotation
  JOINT RightKnee
  {
   OFFSET 0.000000 -40.869800 0.001200
   CHANNELS 3 Yrotation Xrotation Zrotation
   JOINT RightAnkle
   {
    OFFSET 0.000000 -39.717900 0.002100
    CHANNELS 3 Yrotation Xrotation Zrotation
    JOINT RightToe
    {
     OFFSET 0.000000 -4.965400 11.033500
     CHANNELS 3 Yrotation Xrotation Zrotation
     End Site
     {
      OFFSET 0.000000 -1.423100 5.872300
     }
    }
   }
  }
 }
 JOINT LeftHip
 {
  OFFSET 7.771700 -0.012900 -0.001300
  CHANNELS 3 Yrotation Xrotation Zrotation
  JOINT LeftKnee
  {
   OFFSET 0.000000 -40.869800 0.001200
   CHANNELS 3 Yrotation Xrotation Zrotation
   JOINT LeftAnkle
   {
    OFFSET 0.000000 -39.717900 0.002100
    CHANNELS 3 Yrotation Xrotation Zrotation
    JOINT LeftToe
    {
     OFFSET 0.000000 -4.965400 11.033500
     CHANNELS 3 Yrotation Xrotation Zrotation
     End Site
     {
      OFFSET 0.000000 -1.423100 5.872300
     }
    }
   }
  }
 }
}
MOTION
Frames: 6
Frame Time: 0.008333
-32.918820 54.615020 40.780778 179.988874 -32.747426 -11.964267 -0.481053 13.496653 5.608535 -0.235141 7.819936 1.762738 -0.215956 9.738578 2.188021 -0.228367 7.808205 1.759082 4.142857 18.120342 -0.154151 4.339159 -6.512940 -1.075303 2.293107 -1.136067 -3.666028 -12.128799 -14.322915 3.278665 65.066360 -72.009481 -47.166857 13.061726 -9.602693 -23.579773 -8.703960 3.642522 -2.821502 5.731692 -2.845594 -2.121632 -72.597612 -71.073507 80.166520 9.767767 -14.677187 1.063827 -16.949197 -32.909301 4.827669 43.782171 84.251819 38.614495 0.398220 -18.497274 4.128305 -1.098381 2.336769 -0.504700 -16.431723 -45.100808 17.324196 169.795361 79.401322 165.097005 -0.654933 -16.029622 1.258258 -1.170210 -2.190781 -0.524156
-32.912728 54.632974 40.776952 -179.987306 -32.730665 -11.965421 -0.430828 13.445906 5.607846 -0.230010 7.796805 1.754877 -0.219209 9.727290 2.188218 -0.235893 7.803614 1.761629 4.044638 18.190708 -0.102693 4.240738 -6.433059 -1.019607 2.348851 -1.129284 -3.641728 -12.100786 -14.628021 3.176071 66.459978 -72.021665 -48.523891 13.083389 -9.733543 -23.607487 -8.762426 3.713745 -2.797462 5.757450 -2.876304 -2.154407 -72.915828 -71.095322 80.480583 9.805688 -14.651821 1.066132 -16.967325 -32.927599 4.823672 43.920985 84.267314 38.755325 0.400083 -18.522053 4.126960 -1.103536 2.344289 -0.506433 -16.453184 -45.120422 17.317973 169.781202 79.394092 165.084860 -0.637437 -16.028757 1.254573 -1.183714 -2.195137 -0.531247
-32.905572 54.650181 40.773586 -179.973657 -32.711360 -11.962996 -0.425409 13.419778 5.602321 -0.210352 7.779419 1.750971 -0.191184 9.702502 2.180712 -0.283247 7.831871 1.782251 3.994789 18.215876 -0.098576 4.130472 -6.329992 -0.960235 2.389774 -1.136718 -3.639476 -12.020001 -14.955374 3.082811 67.771828 -72.007054 -49.803598 13.106097 -9.880324 -23.641247 -8.761274 3.735862 -2.831222 5.779073 -2.908860 -2.164381 -73.227491 -71.117701 80.778839 9.836654 -14.629559 1.066724 -16.964471 -32.955652 4.828835 44.016513 84.293559 38.860294 0.379833 -18.529566 4.126664 -1.089609 2.336152 -0.498799 -16.468885 -45.141764 17.316515 169.779491 79.388290 165.083876 -0.618808 -16.032082 1.250208 -1.200808 -2.194948 -0.536003
-32.896601 54.667654 40.769611 -179.972715 -32.699356 -11.961869 -0.405627 13.400387 5.605192 -0.162671 7.754076 1.745540 -0.190411 9.690621 2.180581 -0.211464 7.770178 1.753771 3.825584 18.367578 -0.037342 4.041760 -6.254185 -0.898834 2.391550 -1.089012 -3.585343 -12.033934 -15.236208 3.010978 69.015788 -71.963285 -51.017500 13.130207 -10.040391 -23.678683 -8.867604 3.845777 -2.815305 5.800001 -2.939810 -2.183470 -73.458625 -71.119752 80.987375 9.871630 -14.637089 1.074024 -16.956680 -32.972917 4.842633 44.116836 84.312039 38.967361 0.365090 -18.542057 4.125527 -1.084319 2.335424 -0.494444 -16.475273 -45.154674 17.323160 169.778319 79.381559 165.087354 -0.607668 -16.035913 1.245871 -1.211443 -2.197090 -0.540515
-32.886958 54.685059 40.765191 -179.969226 -32.690194 -11.965311 -0.366345 13.377971 5.615752 -0.136881 7.742399 1.741122 -0.222504 9.691790 2.187952 -0.148384 7.737129 1.731488 3.707896 18.478484 0.003161 3.942449 -6.172532 -0.843501 2.433408 -1.076722 -3.557007 -12.060220 -15.508167 2.952351 70.181582 -71.887146 -52.157366 13.159121 -10.210415 -23.716616 -8.929557 3.900932 -2.819415 5.822956 -2.968354 -2.209973 -73.668317 -71.111389 81.178321 9.907106 -14.649217 1.078324 -16.951076 -32.984579 4.860927 44.214775 84.328952 39.068954 0.351000 -18.554862 4.127920 -1.082064 2.334604 -0.492391 -16.484931 -45.167721 17.336608 169.724059 79.365824 165.033857 -0.604583 -16.031249 1.251352 -1.226896 -2.211452 -0.549741
-32.879311 54.700453 40.762432 -179.944927 -32.662775 -11.969184 -0.349366 13.345712 5.613375 -0.127279 7.746522 1.740956 -0.238189 9.675808 2.191271 -0.108750 7.740937 1.720209 3.619737 18.547816 0.030594 3.841651 -6.099797 -0.794028 2.469278 -1.086032 -3.535788 -12.069587 -15.778153 2.900014 71.247528 -71.778082 -53.204914 13.198034 -10.381283 -23.757830 -8.946646 3.902796 -2.854317 5.795472 -2.973856 -2.176066 -73.825204 -71.135482 81.349818 9.941981 -14.662652 1.086622 -16.962150 -33.011204 4.867991 44.326564 84.343303 39.184864 0.339002 -18.575673 4.132818 -1.081208 2.340484 -0.494241 -16.503685 -45.195664 17.337308 169.729413 79.362530 165.042133 -0.597490 -16.040341 1.252788 -1.235079 -2.208192 -0.553245
